<?xml version="1.0" standalone="no"?>
<!DOCTYPE svg PUBLIC "-//W3C//DTD SVG 20010904//EN"
 "http://www.w3.org/TR/2001/REC-SVG-20010904/DTD/svg10.dtd">
<svg version="1.0" xmlns="http://www.w3.org/2000/svg"
 width="1080.000000pt" height="1080.000000pt" viewBox="0 0 1080.000000 1080.000000"
 preserveAspectRatio="xMidYMid meet">
<metadata>
Created by potrace 1.14, written by Peter Selinger 2001-2017
</metadata>
<g transform="translate(0.000000,1080.000000) scale(0.100000,-0.100000)"
fill="#000000" stroke="none">
<path d="M8808 7587 c-70 -45 -173 -111 -229 -147 -56 -36 -137 -87 -181 -115
-43 -27 -128 -81 -188 -120 -61 -38 -146 -92 -189 -120 -42 -27 -111 -71 -152
-97 -41 -26 -180 -115 -309 -197 -288 -184 -559 -356 -685 -436 -52 -33 -141
-89 -197 -125 l-103 -65 -2610 -5 -2610 -5 -3 -252 -2 -253 2057 0 c1132 0
2122 -3 2200 -7 l142 -6 -122 -78 c-67 -43 -144 -92 -172 -109 -27 -17 -142
-90 -255 -163 l-205 -132 -1823 -3 -1822 -2 2 -1008 3 -1007 248 -3 248 -2
225 142 c123 79 268 171 322 205 53 34 120 76 147 93 77 48 285 180 620 395
44 28 224 143 400 254 176 112 397 252 490 312 l170 108 2613 1 2612 0 0 261
0 261 -2192 -2 c-1206 -1 -2197 -2 -2203 -1 -5 0 71 52 168 114 98 61 267 169
378 240 l200 127 1825 0 1824 0 0 1015 0 1015 -257 0 -258 0 -127 -83z m132
-692 l0 -735 -1155 0 c-635 0 -1155 2 -1155 4 0 3 38 28 85 58 47 29 111 70
143 90 31 20 86 55 122 78 36 23 92 59 125 80 33 21 101 64 150 95 50 31 216
137 370 235 396 253 925 589 987 628 29 18 112 71 183 117 72 46 133 84 138
84 4 1 7 -330 7 -734z m-4801 -2284 c-84 -54 -216 -139 -621 -397 -225 -142
-465 -296 -535 -341 -71 -45 -150 -96 -178 -113 -27 -17 -171 -108 -320 -203
-148 -95 -305 -195 -348 -222 -43 -28 -106 -68 -140 -90 -34 -22 -79 -51 -99
-64 l-38 -23 0 741 0 741 1162 0 1161 0 -44 -29z"/>
</g>
</svg>
